<?xml version="1.0" encoding="UTF-8" standalone="no"?>
<!DOCTYPE svg PUBLIC "-//W3C//DTD SVG 1.1//EN" "http://www.w3.org/Graphics/SVG/1.1/DTD/svg11.dtd">
<svg width="100%" height="100%" viewBox="0 0 1000 1000" version="1.1" xmlns="http://www.w3.org/2000/svg" xmlns:xlink="http://www.w3.org/1999/xlink" xml:space="preserve" xmlns:serif="http://www.serif.com/" style="fill-rule:evenodd;clip-rule:evenodd;stroke-linejoin:round;stroke-miterlimit:2;">
    <g transform="matrix(1.22721,0,0,1.22721,-274.703,730.955)">
        <path d="M738.244,-351.167L738.244,-335.167C728.11,-333.033 717.31,-326.9 705.844,-316.767C694.377,-306.633 684.11,-289.567 675.044,-265.567L487.044,219.233L474.244,219.233L279.044,-283.967C271.044,-304.233 261.977,-317.7 251.844,-324.367C241.71,-331.033 232.377,-334.633 223.844,-335.167L223.844,-351.167C234.51,-350.633 247.71,-350.1 263.444,-349.567C279.177,-349.033 294.51,-348.767 309.444,-348.767C330.244,-348.767 349.71,-349.033 367.844,-349.567C385.977,-350.1 400.644,-350.633 411.844,-351.167L411.844,-335.167C393.71,-334.633 379.977,-332.5 370.644,-328.767C361.31,-325.033 356.244,-318.5 355.444,-309.167C354.644,-299.833 357.71,-286.1 364.644,-267.967L513.444,126.433L500.644,140.033L566.478,-30.985L590.529,-71.751L597.515,-111.611L639.844,-221.567C651.044,-250.367 656.377,-272.9 655.844,-289.167C655.31,-305.433 649.177,-317.033 637.444,-323.967C625.71,-330.9 608.644,-334.633 586.244,-335.167L586.244,-350.352C601.71,-349.819 730.244,-350.633 738.244,-351.167Z" style="fill:rgb(18,38,32);fill-rule:nonzero;"/>
    </g>
    <g transform="matrix(1.23588,0,0,1.23588,-89.5665,433.998)">
        <path d="M702.244,-351.167C700.11,-330.9 698.644,-311.3 697.844,-292.367C697.044,-273.433 696.644,-258.9 696.644,-248.767C696.644,-235.967 696.91,-223.967 697.444,-212.767C697.977,-201.567 698.51,-191.7 699.044,-183.167L680.644,-183.167C676.91,-220.5 671.844,-249.967 665.444,-271.567C659.044,-293.167 647.844,-308.767 631.844,-318.367C615.844,-327.967 591.044,-332.767 557.444,-332.767L514.244,-332.767L514.244,122.433C514.244,143.767 516.244,159.767 520.244,170.433C524.244,181.1 532.11,188.3 543.844,192.033C555.577,195.767 572.644,198.167 595.044,199.233L595.044,215.233C581.177,214.167 563.577,213.5 542.244,213.233C520.91,212.967 499.31,212.833 477.444,212.833C453.444,212.833 430.91,212.967 409.844,213.233C388.777,213.5 371.844,214.167 359.044,215.233L359.044,199.233C381.444,198.167 398.51,195.767 410.244,192.033C421.977,188.3 429.844,181.1 433.844,170.433C437.844,159.767 439.844,143.767 439.844,122.433L439.844,-332.767L396.644,-332.767C363.577,-332.767 338.91,-327.967 322.644,-318.367C306.377,-308.767 295.044,-293.167 288.644,-271.567C282.244,-249.967 277.177,-220.5 273.444,-183.167L255.044,-183.167C256.11,-191.7 256.777,-201.567 257.044,-212.767C257.31,-223.967 257.444,-235.967 257.444,-248.767C257.444,-258.9 257.044,-273.433 256.244,-292.367C255.444,-311.3 253.977,-330.9 251.844,-351.167C274.244,-350.633 298.644,-350.1 325.044,-349.567C351.444,-349.033 377.977,-348.767 404.644,-348.767L549.844,-348.767C576.244,-348.767 602.777,-349.033 629.444,-349.567C656.11,-350.1 680.377,-350.633 702.244,-351.167Z" style="fill:rgb(181,140,64);fill-rule:nonzero;"/>
    </g>
    <g transform="matrix(1.22721,0,0,1.22721,94.0209,730.955)">
        <path d="M738.244,-351.167L738.244,-335.167C728.11,-333.033 717.31,-326.9 705.844,-316.767C694.377,-306.633 684.11,-289.567 675.044,-265.567L487.044,219.233L474.244,219.233L279.044,-283.967C271.044,-304.233 261.977,-317.7 251.844,-324.367C241.71,-331.033 232.377,-334.633 223.844,-335.167L223.844,-351.167C234.51,-350.633 400.644,-349.819 411.844,-350.352L411.844,-335.167C393.71,-334.633 363.072,-271.888 370.006,-253.754L513.444,126.433L500.644,140.033L639.844,-221.567C651.044,-250.367 656.377,-272.9 655.844,-289.167C655.31,-305.433 649.177,-317.033 637.444,-323.967C625.71,-330.9 608.644,-334.633 586.244,-335.167L586.244,-351.167C601.71,-350.633 617.444,-350.1 633.444,-349.567C649.444,-349.033 664.377,-348.767 678.244,-348.767C692.11,-348.767 703.577,-349.033 712.644,-349.567C721.71,-350.1 730.244,-350.633 738.244,-351.167Z" style="fill:rgb(18,38,32);fill-rule:nonzero;"/>
    </g>
</svg>
